<svg xmlns="http://www.w3.org/2000/svg" viewBox="0 0 64 64"><path fill="#b0bdc6" d="M38.1 57.6c-.5.5-1.1 1-1.8 1.3l-7.9 3.7c-1.6.7-3.3.8-4.9.2-1.6-.6-2.9-1.8-3.6-3.3l-3.7-7.9c-1.1-2.4-.6-5.3 1.3-7.2.5-.5 1.1-1 1.8-1.3l7.9-3.7c3.2-1.5 7-.1 8.5 3.1l3.7 7.9c1.1 2.3.6 5.3-1.3 7.2M20.4 47.2c-.7.7-.9 1.7-.5 2.6l3.7 7.9c.3.6.7 1 1.3 1.2.6.2 1.2.2 1.8-.1l7.9-3.7c1.1-.5 1.6-1.9 1.1-3L32 44.2c-.5-1.1-1.9-1.6-3-1.1l-8 3.6c-.2.1-.5.3-.6.5"/><g fill="#898a90"><path d="M36.2 56.3c-.4.4-.9.8-1.5 1l-6.4 3c-1.3.6-2.7.7-4 .2-1.3-.5-2.4-1.4-2.9-2.7l-3-6.4c-.9-2-.5-4.4 1-5.9.4-.4.9-.8 1.5-1l6.4-3c2.6-1.2 5.7-.1 6.9 2.5l3 6.4c.9 2 .5 4.4-1 5.9m-14.5-8.4c-.6.6-.7 1.4-.4 2.1l3 6.4c.2.5.6.8 1.1 1 .5.2 1 .1 1.4-.1l6.4-3c.9-.4 1.3-1.6.9-2.5l-3-6.4c-.4-.9-1.5-1.3-2.5-.9l-6.4 3c-.1.1-.3.2-.5.4M1.5 53.8s-4 2.5 1.1 7.6 7.6 1.1 7.6 1.1l-8.7-8.7"/></g><path fill="#b0bdc6" d="M2.9 55.2s-4.2 2.3-.3 6.2c3.9 3.9 6.2-.3 6.2-.3l-5.9-5.9"/><path fill="#ed4c5c" d="M26.8 3.3L1.5 53.6c-1.8 2.8 6.1 10.7 8.9 8.9l50.2-25.3L26.8 3.3"/><path fill="#898a90" d="M62.9 35.2l-1.4 1.4c-3.5 3.5-13.9-1.3-23.3-10.7C28.8 16.4 23.9 6 27.4 2.5l1.4-1.4 34.1 34.1z"/><path fill="#dfe9ef" d="M61.6 34l-3.7 3.7s-7.8.1-19.7-11.9C26.2 13.9 26.3 6.1 26.3 6.1L30 2.4 61.6 34"/><path fill="#b0bdc6" d="M52.1 11.9c9.4 9.4 14.2 19.9 10.7 23.3-3.5 3.5-13.9-1.3-23.3-10.7-9.4-9.4-14.2-19.9-10.7-23.4 3.5-3.4 13.9 1.4 23.3 10.8"/><path fill="#898a90" d="M39.5 24.5c6.7 6.7 13.9 11 18.7 11.8-.8-4.9-5.1-12-11.8-18.7-6.7-6.7-13.9-11-18.7-11.8.8 4.8 5.2 12 11.8 18.7"/></svg>