<svg xmlns="http://www.w3.org/2000/svg" viewBox="0 0 64 64"><path fill="#d0d0d0" d="M39.2 56.8h20.1v2.1H39.2z"/><path fill="#3e4347" d="M46.5 44.8H52v4.5h-5.5z"/><g fill="#94989b"><path d="M18.9 9.2h16.2c2 2.2 4 4.3 5.9 6.5.1.2.3.3.4.5.7.7 1.5 1.1 2.5 1.1h10.9c1.8 0 3.3-1.6 3.3-3.6S56.5 10 54.7 10h-9.6c-2-2.2-4-4.3-5.9-6.5-.1-.2-.3-.3-.4-.5-.7-.6-1.5-1-2.4-1H18.9c-1.8 0-3.3 1.6-3.3 3.6s1.5 3.6 3.3 3.6M54.7 37.6h-9.9c-1 0-1.9-.1-2.7.5-.6.4-1 1-1.5 1.5-1.4 1.6-2.9 3.1-4.3 4.7-.4.5-.9.9-1.3 1.4H18.8c-1.8 0-3.3 1.6-3.3 3.6s1.5 3.6 3.3 3.6h16.9c1.1 0 2.1-.1 3-1.1 2.1-2.3 4.3-4.6 6.4-7h9.6c1.8 0 3.3-1.6 3.3-3.6s-1.5-3.6-3.3-3.6"/></g><path fill="#d0d0d0" d="M43.8 17.3h11v20.3h-11z"/><g fill="#3e4347"><path d="M54.7 20.6L43.8 24v-3.4l10.9-3.3zM54.7 27.4l-10.9 3.4v-3.4L54.7 24zM54.7 34.2l-10.9 3.4v-3.4l10.9-3.4z"/></g><path fill="#94989b" d="M54.7 60.6c0 .8-.6 1.4-1.3 1.4h-8.3c-.7 0-1.3-.6-1.3-1.4v-5.3c0-.8.6-1.4 1.3-1.4h8.3c.7 0 1.3.6 1.3 1.4v5.3"/><g fill="#d0d0d0"><path d="M46.5 53.8h2.7V62h-2.7zM50.6 53.8H52V62h-1.4z"/></g><ellipse cx="39.2" cy="57.9" fill="#94989b" rx="2.7" ry="2.9"/><ellipse cx="40" cy="56.8" fill="#d0d0d0" rx=".8" ry=".9"/><ellipse cx="59.3" cy="57.9" fill="#94989b" rx="2.7" ry="2.9"/><ellipse cx="60.3" cy="56.8" fill="#d0d0d0" rx=".8" ry=".9"/><path fill="#94989b" d="M46.5 49.3H52v4.5h-5.5z"/></svg>