<svg xmlns="http://www.w3.org/2000/svg" viewBox="0 0 64 64"><circle cx="31.9" cy="45" r="17" fill="#d0d0d0"/><path fill="#fff" d="M31.9 30c-8.3 0-15 6.7-15 15s6.7 15 15 15 15-6.7 15-15-6.7-15-15-15"/><circle cx="31.9" cy="25.5" r="13" fill="#d0d0d0"/><path fill="#fff" d="M31.9 14.5c-6.1 0-11 4.9-11 11s4.9 11 11 11 11-4.9 11-11c0-6-4.9-11-11-11"/><circle cx="31.9" cy="26.4" r="2.5" fill="#ff8736"/><g fill="#3e4347"><circle cx="26.5" cy="21.8" r="2"/><circle cx="37.3" cy="21.8" r="2"/></g><g fill="#3e4347"><path d="M30.3 46.3l-1.1-3.2 2.8-2 2.7 2-1 3.2zM30.3 56.1l-1.1-3.2 2.8-2 2.7 2-1 3.2zM31.9 34c-3.1 0-6-1.3-8.1-3.6-.4-.4-.3-1 .1-1.4.4-.4 1-.3 1.4.1C27 31 29.5 32 32 32s4.9-1.1 6.7-2.9c.4-.4 1-.4 1.4-.1.4.4.4 1 .1 1.4C38 32.6 35 34 31.9 34"/></g></svg>