<svg xmlns="http://www.w3.org/2000/svg" viewBox="0 0 64 64"><g><path fill="#428bc1" d="M61.9 52H5.2L0 42h64z" transform="translate(0,7)"/><path fill="#b9c1c6" d="M61 32H13.1L7 42h54z" transform="translate(0,7)"/><g fill="#3e4347"><path d="M53 34h6v6h-6zM45 34h6v6h-6zM37 34h6v6h-6zM29 34h6v6h-6zM21 34h6v6h-6zM19 40h-7l3-6h4z" transform="translate(0,7)"/></g><g fill="#dce1e5"><path d="M10 26h54v6H10zM12 12h38v4H12z" transform="translate(0,7)"/></g><path fill="#b9c1c6" d="M14 16h34v10H14z" transform="translate(0,7)"/><g fill="#778389"><path d="M2 38h1v4H2zM5 38h1v4H5zM8 38h1v4H8zM11 38h1v4h-1zM14 38h1v4h-1zM17 38h1v4h-1z" transform="translate(0,7)"/></g><path fill="#8f989e" d="M0 37h18v1H0z" transform="translate(0,7)"/><g fill="#778389"><path d="M61 22h1v4h-1zM58 22h1v4h-1zM55 22h1v4h-1zM52 22h1v4h-1zM49 22h1v4h-1zM46 22h1v4h-1z" transform="translate(0,7)"/></g><path fill="#8f989e" d="M46 21h18v1H46z" transform="translate(0,7)"/><g fill="#778389"><path d="M53 38h1v4h-1zM56 38h1v4h-1zM59 38h1v4h-1zM62 38h1v4h-1z" transform="translate(0,7)"/></g><path fill="#8f989e" d="M53 37h11v1H53z" transform="translate(0,7)"/><g fill="#3e4347"><path d="M16 18h6v6h-6zM24 18h6v6h-6zM32 18h6v6h-6zM40 18h6v6h-6z" transform="translate(0,7)"/></g><g fill="#8f989e"><path d="M40 4h2v8h-2zM44 6h2v6h-2z" transform="translate(0,7)"/></g></g></svg>