<svg xmlns="http://www.w3.org/2000/svg" xmlns:svg="http://www.w3.org/2000/svg" id="Слой_1" width="24" height="24" x="0" y="0" enable-background="new 0 0 24 24" version="1.1" viewBox="0 0 24 24" xml:space="preserve"><metadata id="metadata7236"/><g id="g7222"><path style="fill:#000;fill-opacity:1" id="path7224" fill="#010202" d="M12,0C5.373,0,0,5.373,0,12s5.373,12,12,12s12-5.373,12-12S18.627,0,12,0 M12,22C6.486,22,2,17.514,2,12 S6.486,2,12,2s10,4.486,10,10S17.514,22,12,22"/><path style="fill:#000;fill-opacity:1" id="path7226" fill="#010202" d="M8,7C6.895,7,6,7.895,6,9s0.895,2,2,2s2-0.895,2-2S9.105,7,8,7"/><path style="fill:#000;fill-opacity:1" id="path7228" fill="#010202" d="M16,7c-1.105,0-2,0.895-2,2s0.895,2,2,2s2-0.895,2-2S17.105,7,16,7"/><path style="fill:#000;fill-opacity:1" id="path7230" fill="#010202" d="M15.232,15c-0.693,1.195-1.87,2-3.349,2c-1.477,0-2.655-0.805-3.347-2H15 M18,13H6c0,3.314,2.686,6,6,6 S18,16.314,18,13"/></g></svg>