<svg xmlns="http://www.w3.org/2000/svg" xmlns:svg="http://www.w3.org/2000/svg" id="Слой_1" width="24" height="24" x="0" y="0" enable-background="new 0 0 24 24" version="1.1" viewBox="0 0 24 24" xml:space="preserve"><metadata id="metadata8433"/><g id="g8421"><path id="polygon8423" d="M 13,4 11,4 10.999,11 9,11 l 0,2 2,0 0,2 2,0 0,-2 4,0 0,-2 -4,0 z" style="fill:#000;fill-opacity:1"/><g id="g8425"><path style="fill:#000;fill-opacity:1" id="path8427" fill="#010202" d="M12,0C5.373,0,0,5.373,0,12s5.373,12,12,12s12-5.373,12-12S18.627,0,12,0 M12,22C6.486,22,2,17.514,2,12 S6.486,2,12,2s10,4.486,10,10S17.514,22,12,22"/></g></g></svg>